<?xml version="1.0" encoding="utf-8"?>
<svg viewBox="164.043 120.879 165.949 134.654" xmlns="http://www.w3.org/2000/svg">
  <g transform="matrix(0.720686, 0, 0, 0.720686, 86.421539, 58.323368)" style="">
    <path id="a" fill-rule="evenodd" clip-rule="evenodd" d="M 289.744 267.285 C 291.688 264.872 292.679 261.615 294.661 255.104 L 337.97 112.834 C 321.702 121.275 304.242 127.186 286.192 130.364 L 257.994 225.654 C 257.193 228.363 253.76 229.19 251.814 227.141 C 251.411 226.718 251.116 226.204 250.952 225.644 L 223.095 130.412 C 204.963 127.249 187.423 121.328 171.085 112.855 L 214.605 255.136 C 216.595 261.638 217.588 264.888 219.532 267.296 C 221.248 269.422 223.48 271.074 226.016 272.094 C 228.888 273.248 232.287 273.248 239.086 273.248 L 270.171 273.248 C 276.978 273.248 280.382 273.248 283.257 272.091 C 285.794 271.069 288.028 269.415 289.744 267.285 Z" style="fill: rgb(255, 93, 1); fill-opacity: 0.31;"/>
    <text style="white-space: pre; fill: rgb(51, 51, 51); font-family: Arial, sans-serif; font-size: 28.2px;" transform="matrix(1, 0, 0, -1, 0, 0)" x="271.63" y="-92.384"> </text>
    <path id="path-1" fill-rule="evenodd" clip-rule="evenodd" d="M 226.364 267.679 C 228.308 265.266 229.299 262.009 231.281 255.498 L 274.59 113.228 C 258.322 121.669 240.862 127.58 222.812 130.758 L 194.614 226.048 C 193.813 228.757 190.38 229.584 188.434 227.535 C 188.031 227.112 187.736 226.598 187.572 226.038 L 159.715 130.806 C 141.583 127.643 124.043 121.722 107.705 113.249 L 151.225 255.53 C 153.215 262.032 154.208 265.282 156.152 267.69 C 157.868 269.816 160.1 271.468 162.636 272.488 C 165.508 273.642 168.907 273.642 175.706 273.642 L 206.791 273.642 C 213.598 273.642 217.002 273.642 219.877 272.485 C 222.414 271.463 224.648 269.809 226.364 267.679 Z" style="fill: rgb(255, 93, 1);"/>
  </g>
</svg>